<mxfile host="Electron" modified="2024-03-22T00:33:46.777Z" agent="Mozilla/5.0 (Windows NT 10.0; Win64; x64) AppleWebKit/537.36 (KHTML, like Gecko) draw.io/24.0.4 Chrome/120.0.6099.109 Electron/28.1.0 Safari/537.36" etag="VL1K3cJUaa5ztaY2B0c1" version="24.0.4" type="device">
  <diagram id="j-yZpObn4fOaiODlwWvo" name="Page-1">
    <mxGraphModel dx="696" dy="341" grid="1" gridSize="10" guides="1" tooltips="1" connect="1" arrows="1" fold="1" page="1" pageScale="1" pageWidth="850" pageHeight="1100" math="1" shadow="0">
      <root>
        <mxCell id="0" />
        <mxCell id="1" parent="0" />
        <mxCell id="wBCeIvIEF6fEkGMiKy1f-1" value="A" style="rounded=1;whiteSpace=wrap;html=1;fillColor=#f5f5f5;fontColor=#333333;strokeColor=#666666;" parent="1" vertex="1">
          <mxGeometry x="120" y="200" width="20" height="20" as="geometry" />
        </mxCell>
        <mxCell id="wBCeIvIEF6fEkGMiKy1f-2" value="B" style="rounded=1;whiteSpace=wrap;html=1;fillColor=#dae8fc;strokeColor=#6c8ebf;" parent="1" vertex="1">
          <mxGeometry x="120" y="280" width="20" height="20" as="geometry" />
        </mxCell>
        <mxCell id="wBCeIvIEF6fEkGMiKy1f-3" value="C" style="rounded=1;whiteSpace=wrap;html=1;fillColor=#d5e8d4;strokeColor=#82b366;" parent="1" vertex="1">
          <mxGeometry x="200" y="200" width="20" height="20" as="geometry" />
        </mxCell>
        <mxCell id="wBCeIvIEF6fEkGMiKy1f-4" value="D" style="rounded=1;whiteSpace=wrap;html=1;fillColor=#f8cecc;strokeColor=#b85450;" parent="1" vertex="1">
          <mxGeometry x="200" y="280" width="20" height="20" as="geometry" />
        </mxCell>
        <mxCell id="wBCeIvIEF6fEkGMiKy1f-5" value="" style="endArrow=classic;html=1;rounded=0;exitX=1;exitY=0;exitDx=0;exitDy=0;entryX=0;entryY=1;entryDx=0;entryDy=0;strokeColor=#6C8EBF;" parent="1" source="wBCeIvIEF6fEkGMiKy1f-2" target="wBCeIvIEF6fEkGMiKy1f-3" edge="1">
          <mxGeometry width="50" height="50" relative="1" as="geometry">
            <mxPoint x="170" y="310" as="sourcePoint" />
            <mxPoint x="190" y="250" as="targetPoint" />
          </mxGeometry>
        </mxCell>
        <mxCell id="wBCeIvIEF6fEkGMiKy1f-6" value="" style="endArrow=classic;html=1;rounded=0;exitX=0.5;exitY=0;exitDx=0;exitDy=0;entryX=0.5;entryY=1;entryDx=0;entryDy=0;strokeColor=#6C8EBF;" parent="1" source="wBCeIvIEF6fEkGMiKy1f-2" target="wBCeIvIEF6fEkGMiKy1f-1" edge="1">
          <mxGeometry width="50" height="50" relative="1" as="geometry">
            <mxPoint x="140" y="290" as="sourcePoint" />
            <mxPoint x="210" y="230" as="targetPoint" />
          </mxGeometry>
        </mxCell>
        <mxCell id="wBCeIvIEF6fEkGMiKy1f-7" value="" style="endArrow=classic;html=1;rounded=0;exitX=-0.133;exitY=0.5;exitDx=0;exitDy=0;entryX=1;entryY=0.5;entryDx=0;entryDy=0;exitPerimeter=0;strokeColor=#82B366;" parent="1" source="wBCeIvIEF6fEkGMiKy1f-3" target="wBCeIvIEF6fEkGMiKy1f-1" edge="1">
          <mxGeometry width="50" height="50" relative="1" as="geometry">
            <mxPoint x="140" y="290" as="sourcePoint" />
            <mxPoint x="210" y="230" as="targetPoint" />
          </mxGeometry>
        </mxCell>
        <mxCell id="wBCeIvIEF6fEkGMiKy1f-9" value="" style="endArrow=classic;html=1;rounded=0;exitX=0.5;exitY=0;exitDx=0;exitDy=0;strokeColor=#B85450;" parent="1" source="wBCeIvIEF6fEkGMiKy1f-4" edge="1">
          <mxGeometry width="50" height="50" relative="1" as="geometry">
            <mxPoint x="140" y="290" as="sourcePoint" />
            <mxPoint x="210" y="220" as="targetPoint" />
          </mxGeometry>
        </mxCell>
        <mxCell id="wBCeIvIEF6fEkGMiKy1f-11" value="" style="endArrow=classic;html=1;rounded=0;entryX=1;entryY=0.5;entryDx=0;entryDy=0;exitX=0;exitY=0.5;exitDx=0;exitDy=0;strokeColor=#B85450;" parent="1" source="wBCeIvIEF6fEkGMiKy1f-4" target="wBCeIvIEF6fEkGMiKy1f-2" edge="1">
          <mxGeometry width="50" height="50" relative="1" as="geometry">
            <mxPoint x="210" y="290" as="sourcePoint" />
            <mxPoint x="150" y="230" as="targetPoint" />
          </mxGeometry>
        </mxCell>
        <mxCell id="wBCeIvIEF6fEkGMiKy1f-44" value="\[\frac{1}{4}\]" style="text;html=1;strokeColor=none;fillColor=none;align=left;verticalAlign=middle;whiteSpace=wrap;rounded=0;" parent="1" vertex="1">
          <mxGeometry x="300" y="200" width="30" height="20" as="geometry" />
        </mxCell>
        <mxCell id="wBCeIvIEF6fEkGMiKy1f-46" value="" style="endArrow=none;html=1;rounded=0;" parent="1" edge="1">
          <mxGeometry width="50" height="50" relative="1" as="geometry">
            <mxPoint x="290" y="190" as="sourcePoint" />
            <mxPoint x="290" y="350" as="targetPoint" />
          </mxGeometry>
        </mxCell>
        <mxCell id="wBCeIvIEF6fEkGMiKy1f-50" value="A" style="rounded=1;whiteSpace=wrap;html=1;fillColor=#f5f5f5;fontColor=#333333;strokeColor=#666666;" parent="1" vertex="1">
          <mxGeometry x="260" y="200" width="20" height="20" as="geometry" />
        </mxCell>
        <mxCell id="wBCeIvIEF6fEkGMiKy1f-51" value="B" style="rounded=1;whiteSpace=wrap;html=1;fillColor=#dae8fc;strokeColor=#6c8ebf;" parent="1" vertex="1">
          <mxGeometry x="260" y="240" width="20" height="20" as="geometry" />
        </mxCell>
        <mxCell id="wBCeIvIEF6fEkGMiKy1f-52" value="C" style="rounded=1;whiteSpace=wrap;html=1;fillColor=#d5e8d4;strokeColor=#82b366;" parent="1" vertex="1">
          <mxGeometry x="260" y="280" width="20" height="20" as="geometry" />
        </mxCell>
        <mxCell id="wBCeIvIEF6fEkGMiKy1f-53" value="D" style="rounded=1;whiteSpace=wrap;html=1;fillColor=#f8cecc;strokeColor=#b85450;" parent="1" vertex="1">
          <mxGeometry x="260" y="320" width="20" height="20" as="geometry" />
        </mxCell>
        <mxCell id="wBCeIvIEF6fEkGMiKy1f-56" value="" style="endArrow=oval;html=1;rounded=0;strokeColor=#6C8EBF;entryX=0;entryY=0.5;entryDx=0;entryDy=0;exitX=1;exitY=0.5;exitDx=0;exitDy=0;endFill=1;startArrow=oval;startFill=1;endSize=3;startSize=3;" parent="1" source="wBCeIvIEF6fEkGMiKy1f-82" target="wBCeIvIEF6fEkGMiKy1f-57" edge="1">
          <mxGeometry width="50" height="50" relative="1" as="geometry">
            <mxPoint x="360" y="290" as="sourcePoint" />
            <mxPoint x="360" y="210" as="targetPoint" />
            <Array as="points" />
          </mxGeometry>
        </mxCell>
        <mxCell id="wBCeIvIEF6fEkGMiKy1f-57" value="\[\,\frac{1}{8} + \frac{1}{4} + \frac{1}{12}\]" style="text;html=1;strokeColor=none;fillColor=none;align=left;verticalAlign=middle;whiteSpace=wrap;rounded=0;" parent="1" vertex="1">
          <mxGeometry x="375" y="200" width="135" height="20" as="geometry" />
        </mxCell>
        <mxCell id="wBCeIvIEF6fEkGMiKy1f-58" value="\[\,\frac{1}{8} + \frac{1}{12}\]" style="text;html=1;strokeColor=none;fillColor=none;align=left;verticalAlign=middle;whiteSpace=wrap;rounded=0;" parent="1" vertex="1">
          <mxGeometry x="375" y="280" width="95" height="20" as="geometry" />
        </mxCell>
        <mxCell id="wBCeIvIEF6fEkGMiKy1f-64" value="" style="endArrow=oval;html=1;rounded=0;strokeColor=#82B366;exitX=1;exitY=0.5;exitDx=0;exitDy=0;entryX=0;entryY=0.5;entryDx=0;entryDy=0;endFill=1;startArrow=oval;startFill=1;endSize=3;startSize=3;" parent="1" target="wBCeIvIEF6fEkGMiKy1f-57" edge="1">
          <mxGeometry width="50" height="50" relative="1" as="geometry">
            <mxPoint x="330" y="290" as="sourcePoint" />
            <mxPoint x="390" y="250" as="targetPoint" />
            <Array as="points" />
          </mxGeometry>
        </mxCell>
        <mxCell id="wBCeIvIEF6fEkGMiKy1f-66" value="" style="endArrow=oval;html=1;rounded=1;strokeColor=#B85450;exitX=1;exitY=0.5;exitDx=0;exitDy=0;entryX=0;entryY=0.5;entryDx=0;entryDy=0;startArrow=oval;startFill=1;endFill=1;endSize=3;startSize=3;" parent="1" target="wBCeIvIEF6fEkGMiKy1f-57" edge="1">
          <mxGeometry width="50" height="50" relative="1" as="geometry">
            <mxPoint x="330" y="330" as="sourcePoint" />
            <mxPoint x="370" y="230" as="targetPoint" />
          </mxGeometry>
        </mxCell>
        <mxCell id="wBCeIvIEF6fEkGMiKy1f-68" value="\[\frac{1}{12}\]" style="text;html=1;strokeColor=none;fillColor=none;align=left;verticalAlign=middle;whiteSpace=wrap;rounded=0;" parent="1" vertex="1">
          <mxGeometry x="375" y="240" width="80" height="20" as="geometry" />
        </mxCell>
        <mxCell id="wBCeIvIEF6fEkGMiKy1f-71" value="" style="endArrow=none;html=1;rounded=0;" parent="1" edge="1">
          <mxGeometry width="50" height="50" relative="1" as="geometry">
            <mxPoint x="470" y="190" as="sourcePoint" />
            <mxPoint x="470" y="350" as="targetPoint" />
          </mxGeometry>
        </mxCell>
        <mxCell id="wBCeIvIEF6fEkGMiKy1f-73" value="\[PR(p_i; 0)\]" style="text;html=1;strokeColor=none;fillColor=none;align=left;verticalAlign=middle;whiteSpace=wrap;rounded=0;" parent="1" vertex="1">
          <mxGeometry x="290" y="160" width="50" height="20" as="geometry" />
        </mxCell>
        <mxCell id="wBCeIvIEF6fEkGMiKy1f-75" value="\[PR(A; t+1)= \frac{PR(B; t)}{L(B)} + \frac{PR(C; t)}{L(C)} + \frac{PR(D; t)}{L(D)}\]" style="text;html=1;strokeColor=none;fillColor=none;align=left;verticalAlign=middle;whiteSpace=wrap;rounded=0;" parent="1" vertex="1">
          <mxGeometry x="240" y="380" width="250" height="20" as="geometry" />
        </mxCell>
        <mxCell id="wBCeIvIEF6fEkGMiKy1f-76" value="\[PR(B;t+1)= \frac{PR(D;t)}{L(D)} \]" style="text;html=1;strokeColor=none;fillColor=none;align=left;verticalAlign=middle;whiteSpace=wrap;rounded=0;" parent="1" vertex="1">
          <mxGeometry x="240" y="420" width="120" height="20" as="geometry" />
        </mxCell>
        <mxCell id="wBCeIvIEF6fEkGMiKy1f-79" value="\[PR(C;t+1)= \frac{PR(B;t)}{L(B)} + \frac{PR(D;t)}{L(D)}\]" style="text;html=1;strokeColor=none;fillColor=none;align=left;verticalAlign=middle;whiteSpace=wrap;rounded=0;" parent="1" vertex="1">
          <mxGeometry x="240" y="460" width="120" height="20" as="geometry" />
        </mxCell>
        <mxCell id="wBCeIvIEF6fEkGMiKy1f-80" value="\[PR(D; t+1)= \frac{PR(A;t)}{L(A)} \]" style="text;html=1;strokeColor=none;fillColor=none;align=left;verticalAlign=middle;whiteSpace=wrap;rounded=0;" parent="1" vertex="1">
          <mxGeometry x="240" y="500" width="190" height="20" as="geometry" />
        </mxCell>
        <mxCell id="wBCeIvIEF6fEkGMiKy1f-82" value="\[\frac{1}{4}\]" style="text;html=1;strokeColor=none;fillColor=none;align=left;verticalAlign=middle;whiteSpace=wrap;rounded=0;" parent="1" vertex="1">
          <mxGeometry x="300" y="240" width="30" height="20" as="geometry" />
        </mxCell>
        <mxCell id="wBCeIvIEF6fEkGMiKy1f-83" value="\[\frac{1}{4}\]" style="text;html=1;strokeColor=none;fillColor=none;align=left;verticalAlign=middle;whiteSpace=wrap;rounded=0;" parent="1" vertex="1">
          <mxGeometry x="300" y="280" width="30" height="20" as="geometry" />
        </mxCell>
        <mxCell id="wBCeIvIEF6fEkGMiKy1f-84" value="\[\frac{1}{4}\]" style="text;html=1;strokeColor=none;fillColor=none;align=left;verticalAlign=middle;whiteSpace=wrap;rounded=0;" parent="1" vertex="1">
          <mxGeometry x="300" y="320" width="30" height="20" as="geometry" />
        </mxCell>
        <mxCell id="wBCeIvIEF6fEkGMiKy1f-85" value="\[\,\frac{5}{24} =\frac{5}{24}\]" style="text;html=1;strokeColor=none;fillColor=none;align=left;verticalAlign=middle;whiteSpace=wrap;rounded=0;" parent="1" vertex="1">
          <mxGeometry x="480" y="280" width="60" height="20" as="geometry" />
        </mxCell>
        <mxCell id="wBCeIvIEF6fEkGMiKy1f-86" value="\[\,\frac{1}{12}=\frac{2}{24}\]" style="text;html=1;strokeColor=none;fillColor=none;align=left;verticalAlign=middle;whiteSpace=wrap;rounded=0;" parent="1" vertex="1">
          <mxGeometry x="480" y="240" width="60" height="20" as="geometry" />
        </mxCell>
        <mxCell id="wBCeIvIEF6fEkGMiKy1f-87" value="\[\,\frac{11}{24}=\frac{11}{24}\]" style="text;html=1;strokeColor=none;fillColor=none;align=left;verticalAlign=middle;whiteSpace=wrap;rounded=0;" parent="1" vertex="1">
          <mxGeometry x="480" y="200" width="90" height="20" as="geometry" />
        </mxCell>
        <mxCell id="wBCeIvIEF6fEkGMiKy1f-94" value="\[PR(p_i; 1)\]" style="text;html=1;strokeColor=none;fillColor=none;align=left;verticalAlign=middle;whiteSpace=wrap;rounded=0;" parent="1" vertex="1">
          <mxGeometry x="470" y="160" width="50" height="20" as="geometry" />
        </mxCell>
        <mxCell id="wBCeIvIEF6fEkGMiKy1f-96" value="\[\frac{1}{24} + \frac{5}{24} +&amp;nbsp;\frac{1}{12}\]" style="text;html=1;strokeColor=none;fillColor=none;align=left;verticalAlign=middle;whiteSpace=wrap;rounded=0;" parent="1" vertex="1">
          <mxGeometry x="600" y="200" width="90" height="20" as="geometry" />
        </mxCell>
        <mxCell id="wBCeIvIEF6fEkGMiKy1f-99" value="" style="curved=1;endArrow=classic;html=1;rounded=0;strokeColor=#B85450;exitX=0.25;exitY=0;exitDx=0;exitDy=0;entryX=1;entryY=0.75;entryDx=0;entryDy=0;" parent="1" source="wBCeIvIEF6fEkGMiKy1f-4" target="wBCeIvIEF6fEkGMiKy1f-1" edge="1">
          <mxGeometry width="50" height="50" relative="1" as="geometry">
            <mxPoint x="210" y="280" as="sourcePoint" />
            <mxPoint x="140" y="220" as="targetPoint" />
            <Array as="points">
              <mxPoint x="190" y="240" />
            </Array>
          </mxGeometry>
        </mxCell>
        <mxCell id="wBCeIvIEF6fEkGMiKy1f-101" value="" style="curved=1;endArrow=classic;html=1;rounded=0;strokeColor=#666666;entryX=0;entryY=0.25;entryDx=0;entryDy=0;exitX=0.75;exitY=1;exitDx=0;exitDy=0;" parent="1" source="wBCeIvIEF6fEkGMiKy1f-1" target="wBCeIvIEF6fEkGMiKy1f-4" edge="1">
          <mxGeometry width="50" height="50" relative="1" as="geometry">
            <mxPoint x="110" y="350" as="sourcePoint" />
            <mxPoint x="160" y="380" as="targetPoint" />
            <Array as="points">
              <mxPoint x="150" y="260" />
            </Array>
          </mxGeometry>
        </mxCell>
        <mxCell id="wBCeIvIEF6fEkGMiKy1f-102" value="" style="endArrow=oval;html=1;rounded=0;strokeColor=#666666;exitX=1;exitY=0.5;exitDx=0;exitDy=0;startArrow=oval;startFill=1;endFill=1;startSize=3;endSize=3;entryX=0;entryY=0.5;entryDx=0;entryDy=0;" parent="1" source="wBCeIvIEF6fEkGMiKy1f-44" target="wBCeIvIEF6fEkGMiKy1f-103" edge="1">
          <mxGeometry width="50" height="50" relative="1" as="geometry">
            <mxPoint x="340" y="300" as="sourcePoint" />
            <mxPoint x="370" y="330" as="targetPoint" />
            <Array as="points" />
          </mxGeometry>
        </mxCell>
        <mxCell id="wBCeIvIEF6fEkGMiKy1f-103" value="\[\,\frac{1}{4}\]" style="text;html=1;strokeColor=none;fillColor=none;align=left;verticalAlign=middle;whiteSpace=wrap;rounded=0;" parent="1" vertex="1">
          <mxGeometry x="375" y="320" width="95" height="20" as="geometry" />
        </mxCell>
        <mxCell id="wBCeIvIEF6fEkGMiKy1f-118" value="\[\,\frac{1}{4}\,=\,\,\frac{6}{24}\]" style="text;html=1;strokeColor=none;fillColor=none;align=left;verticalAlign=middle;whiteSpace=wrap;rounded=0;" parent="1" vertex="1">
          <mxGeometry x="480" y="320" width="30" height="20" as="geometry" />
        </mxCell>
        <mxCell id="wBCeIvIEF6fEkGMiKy1f-119" value="" style="endArrow=oval;html=1;rounded=0;strokeColor=#6C8EBF;entryX=0;entryY=0.5;entryDx=0;entryDy=0;exitX=1;exitY=0.5;exitDx=0;exitDy=0;endFill=1;startArrow=oval;startFill=1;endSize=3;startSize=3;" parent="1" source="wBCeIvIEF6fEkGMiKy1f-82" target="wBCeIvIEF6fEkGMiKy1f-58" edge="1">
          <mxGeometry width="50" height="50" relative="1" as="geometry">
            <mxPoint x="340" y="260" as="sourcePoint" />
            <mxPoint x="385" y="220" as="targetPoint" />
            <Array as="points" />
          </mxGeometry>
        </mxCell>
        <mxCell id="wBCeIvIEF6fEkGMiKy1f-120" value="" style="endArrow=oval;html=1;rounded=1;strokeColor=#B85450;exitX=1;exitY=0.5;exitDx=0;exitDy=0;entryX=0;entryY=0.5;entryDx=0;entryDy=0;startArrow=oval;startFill=1;endFill=1;endSize=3;startSize=3;" parent="1" source="wBCeIvIEF6fEkGMiKy1f-84" target="wBCeIvIEF6fEkGMiKy1f-68" edge="1">
          <mxGeometry width="50" height="50" relative="1" as="geometry">
            <mxPoint x="340" y="340" as="sourcePoint" />
            <mxPoint x="385" y="220" as="targetPoint" />
          </mxGeometry>
        </mxCell>
        <mxCell id="wBCeIvIEF6fEkGMiKy1f-121" value="" style="endArrow=oval;html=1;rounded=1;strokeColor=#B85450;exitX=1;exitY=0.5;exitDx=0;exitDy=0;entryX=0;entryY=0.5;entryDx=0;entryDy=0;startArrow=oval;startFill=1;endFill=1;endSize=3;startSize=3;" parent="1" source="wBCeIvIEF6fEkGMiKy1f-84" target="wBCeIvIEF6fEkGMiKy1f-58" edge="1">
          <mxGeometry width="50" height="50" relative="1" as="geometry">
            <mxPoint x="340" y="340" as="sourcePoint" />
            <mxPoint x="385" y="260" as="targetPoint" />
          </mxGeometry>
        </mxCell>
        <mxCell id="wBCeIvIEF6fEkGMiKy1f-129" value="" style="endArrow=oval;html=1;rounded=0;strokeColor=#6C8EBF;entryX=0;entryY=0.5;entryDx=0;entryDy=0;exitX=1;exitY=0.5;exitDx=0;exitDy=0;endFill=1;startArrow=oval;startFill=1;endSize=3;startSize=3;" parent="1" edge="1">
          <mxGeometry width="50" height="50" relative="1" as="geometry">
            <mxPoint x="550" y="250" as="sourcePoint" />
            <mxPoint x="595" y="210" as="targetPoint" />
            <Array as="points" />
          </mxGeometry>
        </mxCell>
        <mxCell id="wBCeIvIEF6fEkGMiKy1f-130" value="" style="endArrow=oval;html=1;rounded=0;strokeColor=#82B366;exitX=1;exitY=0.5;exitDx=0;exitDy=0;entryX=0;entryY=0.5;entryDx=0;entryDy=0;endFill=1;startArrow=oval;startFill=1;endSize=3;startSize=3;" parent="1" edge="1">
          <mxGeometry width="50" height="50" relative="1" as="geometry">
            <mxPoint x="550" y="290" as="sourcePoint" />
            <mxPoint x="595" y="210" as="targetPoint" />
            <Array as="points" />
          </mxGeometry>
        </mxCell>
        <mxCell id="wBCeIvIEF6fEkGMiKy1f-131" value="" style="endArrow=oval;html=1;rounded=1;strokeColor=#B85450;exitX=1;exitY=0.5;exitDx=0;exitDy=0;entryX=0;entryY=0.5;entryDx=0;entryDy=0;startArrow=oval;startFill=1;endFill=1;endSize=3;startSize=3;" parent="1" edge="1">
          <mxGeometry width="50" height="50" relative="1" as="geometry">
            <mxPoint x="550" y="330" as="sourcePoint" />
            <mxPoint x="595" y="210" as="targetPoint" />
          </mxGeometry>
        </mxCell>
        <mxCell id="wBCeIvIEF6fEkGMiKy1f-132" value="" style="endArrow=oval;html=1;rounded=0;strokeColor=#666666;exitX=1;exitY=0.5;exitDx=0;exitDy=0;startArrow=oval;startFill=1;endFill=1;startSize=3;endSize=3;entryX=0;entryY=0.5;entryDx=0;entryDy=0;" parent="1" edge="1">
          <mxGeometry width="50" height="50" relative="1" as="geometry">
            <mxPoint x="550" y="210" as="sourcePoint" />
            <mxPoint x="595" y="330" as="targetPoint" />
            <Array as="points" />
          </mxGeometry>
        </mxCell>
        <mxCell id="wBCeIvIEF6fEkGMiKy1f-133" value="" style="endArrow=oval;html=1;rounded=0;strokeColor=#6C8EBF;entryX=0;entryY=0.5;entryDx=0;entryDy=0;exitX=1;exitY=0.5;exitDx=0;exitDy=0;endFill=1;startArrow=oval;startFill=1;endSize=3;startSize=3;" parent="1" edge="1">
          <mxGeometry width="50" height="50" relative="1" as="geometry">
            <mxPoint x="550" y="250" as="sourcePoint" />
            <mxPoint x="595" y="290" as="targetPoint" />
            <Array as="points" />
          </mxGeometry>
        </mxCell>
        <mxCell id="wBCeIvIEF6fEkGMiKy1f-134" value="" style="endArrow=oval;html=1;rounded=1;strokeColor=#B85450;exitX=1;exitY=0.5;exitDx=0;exitDy=0;entryX=0;entryY=0.5;entryDx=0;entryDy=0;startArrow=oval;startFill=1;endFill=1;endSize=3;startSize=3;" parent="1" edge="1">
          <mxGeometry width="50" height="50" relative="1" as="geometry">
            <mxPoint x="550" y="330" as="sourcePoint" />
            <mxPoint x="595" y="250" as="targetPoint" />
          </mxGeometry>
        </mxCell>
        <mxCell id="wBCeIvIEF6fEkGMiKy1f-135" value="" style="endArrow=oval;html=1;rounded=1;strokeColor=#B85450;exitX=1;exitY=0.5;exitDx=0;exitDy=0;entryX=0;entryY=0.5;entryDx=0;entryDy=0;startArrow=oval;startFill=1;endFill=1;endSize=3;startSize=3;" parent="1" edge="1">
          <mxGeometry width="50" height="50" relative="1" as="geometry">
            <mxPoint x="550" y="330" as="sourcePoint" />
            <mxPoint x="595" y="290" as="targetPoint" />
          </mxGeometry>
        </mxCell>
        <mxCell id="wBCeIvIEF6fEkGMiKy1f-136" value="\[\,\frac{11}{24}\]" style="text;html=1;strokeColor=none;fillColor=none;align=left;verticalAlign=middle;whiteSpace=wrap;rounded=0;" parent="1" vertex="1">
          <mxGeometry x="600" y="320" width="60" height="20" as="geometry" />
        </mxCell>
        <mxCell id="wBCeIvIEF6fEkGMiKy1f-137" value="\[\frac{1}{12}\]" style="text;html=1;strokeColor=none;fillColor=none;align=left;verticalAlign=middle;whiteSpace=wrap;rounded=0;" parent="1" vertex="1">
          <mxGeometry x="600" y="240" width="80" height="20" as="geometry" />
        </mxCell>
        <mxCell id="wBCeIvIEF6fEkGMiKy1f-138" value="\[\,\frac{1}{24} + \frac{1}{12}\]" style="text;html=1;strokeColor=none;fillColor=none;align=left;verticalAlign=middle;whiteSpace=wrap;rounded=0;" parent="1" vertex="1">
          <mxGeometry x="600" y="280" width="95" height="20" as="geometry" />
        </mxCell>
        <mxCell id="wBCeIvIEF6fEkGMiKy1f-139" value="" style="endArrow=none;html=1;rounded=0;" parent="1" edge="1">
          <mxGeometry width="50" height="50" relative="1" as="geometry">
            <mxPoint x="700" y="190" as="sourcePoint" />
            <mxPoint x="700" y="350" as="targetPoint" />
          </mxGeometry>
        </mxCell>
        <mxCell id="wBCeIvIEF6fEkGMiKy1f-140" value="\[PR(p_i; 2)\]" style="text;html=1;strokeColor=none;fillColor=none;align=left;verticalAlign=middle;whiteSpace=wrap;rounded=0;" parent="1" vertex="1">
          <mxGeometry x="700" y="160" width="50" height="20" as="geometry" />
        </mxCell>
        <mxCell id="wBCeIvIEF6fEkGMiKy1f-141" value="\[p_i \in \{A, B, C, D\}\]" style="text;html=1;strokeColor=none;fillColor=none;align=left;verticalAlign=middle;whiteSpace=wrap;rounded=0;" parent="1" vertex="1">
          <mxGeometry x="120" y="160" width="50" height="20" as="geometry" />
        </mxCell>
        <mxCell id="wBCeIvIEF6fEkGMiKy1f-142" value="\[\frac{1}{3} \,\,=\,\frac{8}{24}\]" style="text;html=1;strokeColor=none;fillColor=none;align=left;verticalAlign=middle;whiteSpace=wrap;rounded=0;" parent="1" vertex="1">
          <mxGeometry x="710" y="200" width="90" height="20" as="geometry" />
        </mxCell>
        <mxCell id="wBCeIvIEF6fEkGMiKy1f-143" value="\[\frac{1}{12} = \frac{2}{24}\]" style="text;html=1;strokeColor=none;fillColor=none;align=left;verticalAlign=middle;whiteSpace=wrap;rounded=0;" parent="1" vertex="1">
          <mxGeometry x="710" y="240" width="80" height="20" as="geometry" />
        </mxCell>
        <mxCell id="wBCeIvIEF6fEkGMiKy1f-144" value="\[\frac{1}{8} \,\,= \,\frac{3}{24}\]" style="text;html=1;strokeColor=none;fillColor=none;align=left;verticalAlign=middle;whiteSpace=wrap;rounded=0;" parent="1" vertex="1">
          <mxGeometry x="710" y="280" width="80" height="20" as="geometry" />
        </mxCell>
        <mxCell id="wBCeIvIEF6fEkGMiKy1f-146" value="\[\frac{11}{12} = \frac{11}{24}\]" style="text;html=1;strokeColor=none;fillColor=none;align=left;verticalAlign=middle;whiteSpace=wrap;rounded=0;" parent="1" vertex="1">
          <mxGeometry x="710" y="320" width="80" height="20" as="geometry" />
        </mxCell>
        <mxCell id="wBCeIvIEF6fEkGMiKy1f-147" value="\[ PR(p_i;t+1)=&lt;br&gt;\sum_{p_j \in M(p_i)} \frac{PR(p_j; t)}{L(p_j)}\]" style="text;html=1;strokeColor=none;fillColor=none;align=left;verticalAlign=middle;whiteSpace=wrap;rounded=0;" parent="1" vertex="1">
          <mxGeometry x="590" y="435" width="210" height="20" as="geometry" />
        </mxCell>
        <mxCell id="wBCeIvIEF6fEkGMiKy1f-148" value="" style="shape=curlyBracket;whiteSpace=wrap;html=1;rounded=1;flipH=1;labelPosition=right;verticalLabelPosition=middle;align=left;verticalAlign=middle;" parent="1" vertex="1">
          <mxGeometry x="560" y="370" width="20" height="150" as="geometry" />
        </mxCell>
      </root>
    </mxGraphModel>
  </diagram>
</mxfile>
